<mxfile host="app.diagrams.net" modified="2021-09-19T14:15:34.995Z" agent="5.0 (Windows NT 10.0; Win64; x64) AppleWebKit/537.36 (KHTML, like Gecko) Chrome/93.0.4577.82 Safari/537.36 Edg/93.0.961.52" etag="fPSbDSUMd7hAg_keWxaL" version="15.2.9" type="github">
  <diagram id="XZUkvguz-A0ezNSa09nm" name="Page-1">
    <mxGraphModel dx="1718" dy="1550" grid="1" gridSize="10" guides="1" tooltips="1" connect="1" arrows="1" fold="1" page="1" pageScale="1" pageWidth="850" pageHeight="1100" math="0" shadow="0">
      <root>
        <mxCell id="0" />
        <mxCell id="1" parent="0" />
        <mxCell id="JRqAic6rARAx1u7xyLW3-36" style="edgeStyle=orthogonalEdgeStyle;rounded=0;orthogonalLoop=1;jettySize=auto;html=1;endArrow=none;endFill=0;startArrow=diamond;startFill=1;" parent="1" source="JRqAic6rARAx1u7xyLW3-11" target="JRqAic6rARAx1u7xyLW3-19" edge="1">
          <mxGeometry relative="1" as="geometry">
            <Array as="points">
              <mxPoint x="310" y="119" />
              <mxPoint x="310" y="122" />
            </Array>
          </mxGeometry>
        </mxCell>
        <mxCell id="JRqAic6rARAx1u7xyLW3-167" style="edgeStyle=orthogonalEdgeStyle;rounded=0;orthogonalLoop=1;jettySize=auto;html=1;startArrow=none;startFill=0;endArrow=open;endFill=0;" parent="1" source="JRqAic6rARAx1u7xyLW3-65" target="JRqAic6rARAx1u7xyLW3-11" edge="1">
          <mxGeometry relative="1" as="geometry">
            <Array as="points">
              <mxPoint x="550" y="210" />
              <mxPoint x="165" y="210" />
            </Array>
          </mxGeometry>
        </mxCell>
        <mxCell id="JRqAic6rARAx1u7xyLW3-168" style="edgeStyle=orthogonalEdgeStyle;rounded=0;orthogonalLoop=1;jettySize=auto;html=1;startArrow=none;startFill=0;endArrow=open;endFill=0;" parent="1" source="JRqAic6rARAx1u7xyLW3-71" target="JRqAic6rARAx1u7xyLW3-11" edge="1">
          <mxGeometry relative="1" as="geometry">
            <Array as="points">
              <mxPoint x="680" y="200" />
              <mxPoint x="150" y="200" />
            </Array>
          </mxGeometry>
        </mxCell>
        <mxCell id="JRqAic6rARAx1u7xyLW3-173" style="edgeStyle=orthogonalEdgeStyle;rounded=0;orthogonalLoop=1;jettySize=auto;html=1;startArrow=open;startFill=0;endArrow=none;endFill=0;" parent="1" source="JRqAic6rARAx1u7xyLW3-11" target="JRqAic6rARAx1u7xyLW3-77" edge="1">
          <mxGeometry relative="1" as="geometry">
            <Array as="points">
              <mxPoint x="-30" y="80" />
              <mxPoint x="-30" y="189" />
            </Array>
          </mxGeometry>
        </mxCell>
        <mxCell id="JRqAic6rARAx1u7xyLW3-192" style="edgeStyle=orthogonalEdgeStyle;rounded=0;orthogonalLoop=1;jettySize=auto;html=1;startArrow=open;startFill=0;endArrow=none;endFill=0;dashed=1;" parent="1" source="JRqAic6rARAx1u7xyLW3-113" target="JRqAic6rARAx1u7xyLW3-11" edge="1">
          <mxGeometry relative="1" as="geometry">
            <Array as="points">
              <mxPoint x="180" y="-90" />
              <mxPoint x="180" y="-90" />
            </Array>
          </mxGeometry>
        </mxCell>
        <mxCell id="JRqAic6rARAx1u7xyLW3-193" value="&amp;lt;uses&amp;gt;&amp;gt;" style="edgeLabel;html=1;align=center;verticalAlign=middle;resizable=0;points=[];" parent="JRqAic6rARAx1u7xyLW3-192" vertex="1" connectable="0">
          <mxGeometry x="-0.2461" y="-3" relative="1" as="geometry">
            <mxPoint as="offset" />
          </mxGeometry>
        </mxCell>
        <mxCell id="JRqAic6rARAx1u7xyLW3-194" style="edgeStyle=orthogonalEdgeStyle;rounded=0;orthogonalLoop=1;jettySize=auto;html=1;dashed=1;startArrow=open;startFill=0;endArrow=none;endFill=0;" parent="1" source="JRqAic6rARAx1u7xyLW3-44" target="JRqAic6rARAx1u7xyLW3-11" edge="1">
          <mxGeometry relative="1" as="geometry">
            <Array as="points">
              <mxPoint x="320" y="419" />
              <mxPoint x="320" y="150" />
            </Array>
          </mxGeometry>
        </mxCell>
        <mxCell id="JRqAic6rARAx1u7xyLW3-195" value="&amp;lt;&amp;lt;uses&amp;gt;&amp;gt;" style="edgeLabel;html=1;align=center;verticalAlign=middle;resizable=0;points=[];" parent="JRqAic6rARAx1u7xyLW3-194" vertex="1" connectable="0">
          <mxGeometry x="-0.132" y="-4" relative="1" as="geometry">
            <mxPoint as="offset" />
          </mxGeometry>
        </mxCell>
        <mxCell id="JRqAic6rARAx1u7xyLW3-196" style="edgeStyle=orthogonalEdgeStyle;rounded=0;orthogonalLoop=1;jettySize=auto;html=1;startArrow=diamond;startFill=1;endArrow=none;endFill=0;" parent="1" source="JRqAic6rARAx1u7xyLW3-11" target="JRqAic6rARAx1u7xyLW3-119" edge="1">
          <mxGeometry relative="1" as="geometry">
            <Array as="points">
              <mxPoint x="320" y="80" />
              <mxPoint x="320" y="-131" />
            </Array>
          </mxGeometry>
        </mxCell>
        <mxCell id="JRqAic6rARAx1u7xyLW3-11" value="&lt;span style=&quot;font-weight: 700&quot;&gt;Model&lt;/span&gt;" style="swimlane;fontStyle=0;align=center;verticalAlign=top;childLayout=stackLayout;horizontal=1;startSize=30;horizontalStack=0;resizeParent=1;resizeParentMax=0;resizeLast=0;collapsible=0;marginBottom=0;html=1;" parent="1" vertex="1">
          <mxGeometry x="80" y="32" width="170" height="154" as="geometry" />
        </mxCell>
        <mxCell id="JRqAic6rARAx1u7xyLW3-13" value="&lt;div&gt;-DBNAME_UNTITLED:String&amp;nbsp;&lt;/div&gt;&lt;div&gt;&lt;u&gt;-DBNAME_COPY: int&amp;nbsp;&lt;/u&gt;&lt;/div&gt;&lt;div&gt;-session:Session&lt;/div&gt;" style="text;html=1;strokeColor=none;fillColor=none;align=left;verticalAlign=middle;spacingLeft=4;spacingRight=4;overflow=hidden;rotatable=0;points=[[0,0.5],[1,0.5]];portConstraint=eastwest;" parent="JRqAic6rARAx1u7xyLW3-11" vertex="1">
          <mxGeometry y="30" width="170" height="50" as="geometry" />
        </mxCell>
        <mxCell id="JRqAic6rARAx1u7xyLW3-16" value="" style="line;strokeWidth=1;fillColor=none;align=left;verticalAlign=middle;spacingTop=-1;spacingLeft=3;spacingRight=3;rotatable=0;labelPosition=right;points=[];portConstraint=eastwest;" parent="JRqAic6rARAx1u7xyLW3-11" vertex="1">
          <mxGeometry y="80" width="170" height="8" as="geometry" />
        </mxCell>
        <mxCell id="JRqAic6rARAx1u7xyLW3-17" value="operations" style="text;html=1;strokeColor=none;fillColor=none;align=center;verticalAlign=middle;spacingLeft=4;spacingRight=4;overflow=hidden;rotatable=0;points=[[0,0.5],[1,0.5]];portConstraint=eastwest;" parent="JRqAic6rARAx1u7xyLW3-11" vertex="1">
          <mxGeometry y="88" width="170" height="20" as="geometry" />
        </mxCell>
        <mxCell id="JRqAic6rARAx1u7xyLW3-18" value="&lt;div&gt;+getSession():Session&amp;nbsp;&lt;/div&gt;&lt;div&gt;+init():void&amp;nbsp;&lt;/div&gt;&lt;div&gt;+createAndOpenUntitledDb():void&amp;nbsp;&lt;/div&gt;" style="text;html=1;strokeColor=none;fillColor=none;align=left;verticalAlign=middle;spacingLeft=4;spacingRight=4;overflow=hidden;rotatable=0;points=[[0,0.5],[1,0.5]];portConstraint=eastwest;" parent="JRqAic6rARAx1u7xyLW3-11" vertex="1">
          <mxGeometry y="108" width="170" height="46" as="geometry" />
        </mxCell>
        <mxCell id="JRqAic6rARAx1u7xyLW3-37" style="edgeStyle=orthogonalEdgeStyle;rounded=0;orthogonalLoop=1;jettySize=auto;html=1;startArrow=none;startFill=0;endArrow=block;endFill=0;" parent="1" source="JRqAic6rARAx1u7xyLW3-19" target="JRqAic6rARAx1u7xyLW3-27" edge="1">
          <mxGeometry relative="1" as="geometry">
            <Array as="points">
              <mxPoint x="550" y="94" />
              <mxPoint x="550" y="94" />
            </Array>
          </mxGeometry>
        </mxCell>
        <mxCell id="JRqAic6rARAx1u7xyLW3-162" style="edgeStyle=orthogonalEdgeStyle;rounded=0;orthogonalLoop=1;jettySize=auto;html=1;startArrow=none;startFill=0;endArrow=open;endFill=0;dashed=1;" parent="1" source="JRqAic6rARAx1u7xyLW3-59" target="JRqAic6rARAx1u7xyLW3-19" edge="1">
          <mxGeometry relative="1" as="geometry">
            <Array as="points">
              <mxPoint x="-50" y="690" />
              <mxPoint x="-50" y="20" />
              <mxPoint x="450" y="20" />
            </Array>
          </mxGeometry>
        </mxCell>
        <mxCell id="pl6dwwumGZ7dOIlK43uW-1" value="&amp;lt;&amp;lt;uses&amp;gt;&amp;gt;" style="edgeLabel;html=1;align=center;verticalAlign=middle;resizable=0;points=[];" parent="JRqAic6rARAx1u7xyLW3-162" vertex="1" connectable="0">
          <mxGeometry x="-0.4794" y="3" relative="1" as="geometry">
            <mxPoint as="offset" />
          </mxGeometry>
        </mxCell>
        <mxCell id="JRqAic6rARAx1u7xyLW3-176" style="edgeStyle=orthogonalEdgeStyle;rounded=0;orthogonalLoop=1;jettySize=auto;html=1;startArrow=diamond;startFill=0;endArrow=none;endFill=0;" parent="1" source="JRqAic6rARAx1u7xyLW3-77" target="JRqAic6rARAx1u7xyLW3-19" edge="1">
          <mxGeometry relative="1" as="geometry">
            <Array as="points">
              <mxPoint x="-240" y="10" />
              <mxPoint x="480" y="10" />
            </Array>
          </mxGeometry>
        </mxCell>
        <mxCell id="JRqAic6rARAx1u7xyLW3-198" style="edgeStyle=orthogonalEdgeStyle;rounded=0;orthogonalLoop=1;jettySize=auto;html=1;dashed=1;startArrow=open;startFill=0;endArrow=none;endFill=0;" parent="1" source="JRqAic6rARAx1u7xyLW3-44" target="JRqAic6rARAx1u7xyLW3-19" edge="1">
          <mxGeometry relative="1" as="geometry">
            <Array as="points">
              <mxPoint x="450" y="320" />
              <mxPoint x="450" y="320" />
            </Array>
          </mxGeometry>
        </mxCell>
        <mxCell id="JRqAic6rARAx1u7xyLW3-199" value="&amp;lt;&amp;lt;uses&amp;gt;&amp;gt;" style="edgeLabel;html=1;align=center;verticalAlign=middle;resizable=0;points=[];" parent="JRqAic6rARAx1u7xyLW3-198" vertex="1" connectable="0">
          <mxGeometry x="-0.1762" y="3" relative="1" as="geometry">
            <mxPoint as="offset" />
          </mxGeometry>
        </mxCell>
        <mxCell id="JRqAic6rARAx1u7xyLW3-19" value="&lt;span style=&quot;font-weight: 700&quot;&gt;Session&lt;/span&gt;" style="swimlane;fontStyle=0;align=center;verticalAlign=top;childLayout=stackLayout;horizontal=1;startSize=30;horizontalStack=0;resizeParent=1;resizeParentMax=0;resizeLast=0;collapsible=0;marginBottom=0;html=1;" parent="1" vertex="1">
          <mxGeometry x="380" width="150" height="140" as="geometry" />
        </mxCell>
        <mxCell id="JRqAic6rARAx1u7xyLW3-21" value="&lt;div&gt;-sessionId:long&amp;nbsp;&lt;/div&gt;&lt;div&gt;-sessionName:String&amp;nbsp;&lt;/div&gt;&lt;div&gt;-siteTree:SiteMap&amp;nbsp;&lt;/div&gt;" style="text;html=1;strokeColor=none;fillColor=none;align=left;verticalAlign=middle;spacingLeft=4;spacingRight=4;overflow=hidden;rotatable=0;points=[[0,0.5],[1,0.5]];portConstraint=eastwest;" parent="JRqAic6rARAx1u7xyLW3-19" vertex="1">
          <mxGeometry y="30" width="150" height="50" as="geometry" />
        </mxCell>
        <mxCell id="JRqAic6rARAx1u7xyLW3-24" value="" style="line;strokeWidth=1;fillColor=none;align=left;verticalAlign=middle;spacingTop=-1;spacingLeft=3;spacingRight=3;rotatable=0;labelPosition=right;points=[];portConstraint=eastwest;" parent="JRqAic6rARAx1u7xyLW3-19" vertex="1">
          <mxGeometry y="80" width="150" height="8" as="geometry" />
        </mxCell>
        <mxCell id="JRqAic6rARAx1u7xyLW3-26" value="&lt;div&gt;+discard():void&amp;nbsp;&lt;/div&gt;&lt;div&gt;+getSessionId():long&amp;nbsp;&lt;/div&gt;&lt;div&gt;+getSessionDesc():String&amp;nbsp;&lt;/div&gt;" style="text;html=1;strokeColor=none;fillColor=none;align=left;verticalAlign=middle;spacingLeft=4;spacingRight=4;overflow=hidden;rotatable=0;points=[[0,0.5],[1,0.5]];portConstraint=eastwest;" parent="JRqAic6rARAx1u7xyLW3-19" vertex="1">
          <mxGeometry y="88" width="150" height="52" as="geometry" />
        </mxCell>
        <mxCell id="JRqAic6rARAx1u7xyLW3-27" value="&lt;i style=&quot;font-weight: 700&quot;&gt;FileXML&lt;/i&gt;" style="swimlane;fontStyle=0;align=center;verticalAlign=top;childLayout=stackLayout;horizontal=1;startSize=30;horizontalStack=0;resizeParent=1;resizeParentMax=0;resizeLast=0;collapsible=0;marginBottom=0;html=1;" parent="1" vertex="1">
          <mxGeometry x="650" y="40" width="260" height="140" as="geometry" />
        </mxCell>
        <mxCell id="JRqAic6rARAx1u7xyLW3-29" value="&lt;div&gt;#doc:Document&amp;nbsp;&lt;/div&gt;&lt;div&gt;#docBuilder:DocumentBuilder&amp;nbsp;&lt;/div&gt;&lt;div&gt;#docBuilderFactory:DocumentBuilderFactory&lt;/div&gt;" style="text;html=1;strokeColor=none;fillColor=none;align=left;verticalAlign=middle;spacingLeft=4;spacingRight=4;overflow=hidden;rotatable=0;points=[[0,0.5],[1,0.5]];portConstraint=eastwest;" parent="JRqAic6rARAx1u7xyLW3-27" vertex="1">
          <mxGeometry y="30" width="260" height="50" as="geometry" />
        </mxCell>
        <mxCell id="JRqAic6rARAx1u7xyLW3-32" value="" style="line;strokeWidth=1;fillColor=none;align=left;verticalAlign=middle;spacingTop=-1;spacingLeft=3;spacingRight=3;rotatable=0;labelPosition=right;points=[];portConstraint=eastwest;" parent="JRqAic6rARAx1u7xyLW3-27" vertex="1">
          <mxGeometry y="80" width="260" height="8" as="geometry" />
        </mxCell>
        <mxCell id="JRqAic6rARAx1u7xyLW3-34" value="&lt;div&gt;+getDocument():Document&amp;nbsp;&lt;/div&gt;&lt;div&gt;#getElement(tag:String):Element&amp;nbsp;&lt;/div&gt;&lt;div&gt;#getElement(path:String[]):Element&amp;nbsp;&lt;/div&gt;" style="text;html=1;strokeColor=none;fillColor=none;align=left;verticalAlign=middle;spacingLeft=4;spacingRight=4;overflow=hidden;rotatable=0;points=[[0,0.5],[1,0.5]];portConstraint=eastwest;" parent="JRqAic6rARAx1u7xyLW3-27" vertex="1">
          <mxGeometry y="88" width="260" height="52" as="geometry" />
        </mxCell>
        <mxCell id="JRqAic6rARAx1u7xyLW3-50" style="edgeStyle=orthogonalEdgeStyle;rounded=0;orthogonalLoop=1;jettySize=auto;html=1;startArrow=none;startFill=0;endArrow=open;endFill=0;dashed=1;" parent="1" source="JRqAic6rARAx1u7xyLW3-38" target="JRqAic6rARAx1u7xyLW3-44" edge="1">
          <mxGeometry relative="1" as="geometry">
            <Array as="points">
              <mxPoint x="325" y="495" />
              <mxPoint x="325" y="430" />
            </Array>
          </mxGeometry>
        </mxCell>
        <mxCell id="JRqAic6rARAx1u7xyLW3-51" value="&amp;lt;&amp;lt;uses&amp;gt;&amp;gt;" style="edgeLabel;html=1;align=center;verticalAlign=middle;resizable=0;points=[];" parent="JRqAic6rARAx1u7xyLW3-50" vertex="1" connectable="0">
          <mxGeometry x="-0.1833" y="-2" relative="1" as="geometry">
            <mxPoint x="1" y="-11" as="offset" />
          </mxGeometry>
        </mxCell>
        <mxCell id="JRqAic6rARAx1u7xyLW3-54" style="edgeStyle=orthogonalEdgeStyle;rounded=0;orthogonalLoop=1;jettySize=auto;html=1;dashed=1;startArrow=none;startFill=0;endArrow=open;endFill=0;" parent="1" source="JRqAic6rARAx1u7xyLW3-38" target="JRqAic6rARAx1u7xyLW3-11" edge="1">
          <mxGeometry relative="1" as="geometry">
            <Array as="points">
              <mxPoint x="50" y="479" />
              <mxPoint x="50" y="110" />
            </Array>
          </mxGeometry>
        </mxCell>
        <mxCell id="JRqAic6rARAx1u7xyLW3-58" value="&amp;lt;&amp;lt;uses&amp;gt;&amp;gt;" style="edgeLabel;html=1;align=center;verticalAlign=middle;resizable=0;points=[];" parent="JRqAic6rARAx1u7xyLW3-54" vertex="1" connectable="0">
          <mxGeometry x="0.1063" relative="1" as="geometry">
            <mxPoint as="offset" />
          </mxGeometry>
        </mxCell>
        <mxCell id="JRqAic6rARAx1u7xyLW3-155" style="edgeStyle=orthogonalEdgeStyle;rounded=0;orthogonalLoop=1;jettySize=auto;html=1;startArrow=open;startFill=0;endArrow=none;endFill=0;dashed=1;" parent="1" source="JRqAic6rARAx1u7xyLW3-137" target="JRqAic6rARAx1u7xyLW3-38" edge="1">
          <mxGeometry relative="1" as="geometry" />
        </mxCell>
        <mxCell id="pl6dwwumGZ7dOIlK43uW-2" value="&amp;lt;&amp;lt;uses&amp;gt;&amp;gt;" style="edgeLabel;html=1;align=center;verticalAlign=middle;resizable=0;points=[];" parent="JRqAic6rARAx1u7xyLW3-155" vertex="1" connectable="0">
          <mxGeometry x="0.2288" y="-1" relative="1" as="geometry">
            <mxPoint as="offset" />
          </mxGeometry>
        </mxCell>
        <mxCell id="JRqAic6rARAx1u7xyLW3-156" style="edgeStyle=orthogonalEdgeStyle;rounded=0;orthogonalLoop=1;jettySize=auto;html=1;startArrow=open;startFill=0;endArrow=none;endFill=0;exitX=0.5;exitY=0;exitDx=0;exitDy=0;dashed=1;" parent="1" source="JRqAic6rARAx1u7xyLW3-59" target="JRqAic6rARAx1u7xyLW3-38" edge="1">
          <mxGeometry relative="1" as="geometry" />
        </mxCell>
        <mxCell id="pl6dwwumGZ7dOIlK43uW-3" value="&amp;lt;&amp;lt;uses&amp;gt;&amp;gt;" style="edgeLabel;html=1;align=center;verticalAlign=middle;resizable=0;points=[];" parent="JRqAic6rARAx1u7xyLW3-156" vertex="1" connectable="0">
          <mxGeometry x="0.2965" y="1" relative="1" as="geometry">
            <mxPoint as="offset" />
          </mxGeometry>
        </mxCell>
        <mxCell id="JRqAic6rARAx1u7xyLW3-38" value="&lt;span style=&quot;font-weight: 700&quot;&gt;Paros&lt;/span&gt;" style="swimlane;fontStyle=0;align=center;verticalAlign=top;childLayout=stackLayout;horizontal=1;startSize=30;horizontalStack=0;resizeParent=1;resizeParentMax=0;resizeLast=0;collapsible=0;marginBottom=0;html=1;" parent="1" vertex="1">
          <mxGeometry x="100" y="420" width="180" height="110" as="geometry" />
        </mxCell>
        <mxCell id="JRqAic6rARAx1u7xyLW3-40" value="&lt;div&gt;-cmdLine:CommandLine&amp;nbsp;&lt;/div&gt;&lt;div&gt;-log:static Log&amp;nbsp;&lt;/div&gt;" style="text;html=1;strokeColor=none;fillColor=none;align=left;verticalAlign=middle;spacingLeft=4;spacingRight=4;overflow=hidden;rotatable=0;points=[[0,0.5],[1,0.5]];portConstraint=eastwest;" parent="JRqAic6rARAx1u7xyLW3-38" vertex="1">
          <mxGeometry y="30" width="180" height="20" as="geometry" />
        </mxCell>
        <mxCell id="JRqAic6rARAx1u7xyLW3-41" value="" style="line;strokeWidth=1;fillColor=none;align=left;verticalAlign=middle;spacingTop=-1;spacingLeft=3;spacingRight=3;rotatable=0;labelPosition=right;points=[];portConstraint=eastwest;" parent="JRqAic6rARAx1u7xyLW3-38" vertex="1">
          <mxGeometry y="50" width="180" height="8" as="geometry" />
        </mxCell>
        <mxCell id="JRqAic6rARAx1u7xyLW3-43" value="&lt;div&gt;+main(args:String[] ):static void&amp;nbsp;&lt;/div&gt;&lt;div&gt;-run():void&amp;nbsp;&lt;/div&gt;&lt;div&gt;-runCommandLine():void&amp;nbsp;&lt;/div&gt;" style="text;html=1;strokeColor=none;fillColor=none;align=left;verticalAlign=middle;spacingLeft=4;spacingRight=4;overflow=hidden;rotatable=0;points=[[0,0.5],[1,0.5]];portConstraint=eastwest;" parent="JRqAic6rARAx1u7xyLW3-38" vertex="1">
          <mxGeometry y="58" width="180" height="52" as="geometry" />
        </mxCell>
        <mxCell id="JRqAic6rARAx1u7xyLW3-44" value="&lt;span style=&quot;font-weight: 700&quot;&gt;Constant&lt;/span&gt;" style="swimlane;fontStyle=0;align=center;verticalAlign=top;childLayout=stackLayout;horizontal=1;startSize=30;horizontalStack=0;resizeParent=1;resizeParentMax=0;resizeLast=0;collapsible=0;marginBottom=0;html=1;" parent="1" vertex="1">
          <mxGeometry x="350" y="360" width="180" height="140" as="geometry" />
        </mxCell>
        <mxCell id="JRqAic6rARAx1u7xyLW3-46" value="&lt;div&gt;&lt;u&gt;+PROGRAM_NAME:String&amp;nbsp;&lt;/u&gt;&lt;/div&gt;&lt;div&gt;&lt;u&gt;+PROGRAM_VERSION:String&amp;nbsp;&lt;/u&gt;&lt;/div&gt;&lt;div&gt;&lt;u&gt;+VERSION_TAG:long&lt;/u&gt;&amp;nbsp;&lt;/div&gt;" style="text;html=1;strokeColor=none;fillColor=none;align=left;verticalAlign=middle;spacingLeft=4;spacingRight=4;overflow=hidden;rotatable=0;points=[[0,0.5],[1,0.5]];portConstraint=eastwest;" parent="JRqAic6rARAx1u7xyLW3-44" vertex="1">
          <mxGeometry y="30" width="180" height="50" as="geometry" />
        </mxCell>
        <mxCell id="JRqAic6rARAx1u7xyLW3-47" value="" style="line;strokeWidth=1;fillColor=none;align=left;verticalAlign=middle;spacingTop=-1;spacingLeft=3;spacingRight=3;rotatable=0;labelPosition=right;points=[];portConstraint=eastwest;" parent="JRqAic6rARAx1u7xyLW3-44" vertex="1">
          <mxGeometry y="80" width="180" height="8" as="geometry" />
        </mxCell>
        <mxCell id="JRqAic6rARAx1u7xyLW3-49" value="&lt;div&gt;&lt;u&gt;+getEyeCatcher():String&amp;nbsp;&lt;/u&gt;&lt;/div&gt;&lt;div&gt;&lt;u&gt;+isWindows():boolean&amp;nbsp;&lt;/u&gt;&lt;/div&gt;&lt;div&gt;&lt;u&gt;+getInstance():Constant&lt;/u&gt;&amp;nbsp;&lt;/div&gt;" style="text;html=1;strokeColor=none;fillColor=none;align=left;verticalAlign=middle;spacingLeft=4;spacingRight=4;overflow=hidden;rotatable=0;points=[[0,0.5],[1,0.5]];portConstraint=eastwest;" parent="JRqAic6rARAx1u7xyLW3-44" vertex="1">
          <mxGeometry y="88" width="180" height="52" as="geometry" />
        </mxCell>
        <mxCell id="JRqAic6rARAx1u7xyLW3-157" style="edgeStyle=orthogonalEdgeStyle;rounded=0;orthogonalLoop=1;jettySize=auto;html=1;startArrow=none;startFill=0;endArrow=block;endFill=0;" parent="1" source="JRqAic6rARAx1u7xyLW3-59" target="JRqAic6rARAx1u7xyLW3-65" edge="1">
          <mxGeometry relative="1" as="geometry" />
        </mxCell>
        <mxCell id="JRqAic6rARAx1u7xyLW3-158" style="edgeStyle=orthogonalEdgeStyle;rounded=0;orthogonalLoop=1;jettySize=auto;html=1;startArrow=none;startFill=0;endArrow=open;endFill=0;dashed=1;" parent="1" source="JRqAic6rARAx1u7xyLW3-59" target="JRqAic6rARAx1u7xyLW3-11" edge="1">
          <mxGeometry relative="1" as="geometry">
            <Array as="points">
              <mxPoint x="20" y="659" />
              <mxPoint x="20" y="119" />
            </Array>
          </mxGeometry>
        </mxCell>
        <mxCell id="JRqAic6rARAx1u7xyLW3-159" value="Text" style="edgeLabel;html=1;align=center;verticalAlign=middle;resizable=0;points=[];" parent="JRqAic6rARAx1u7xyLW3-158" vertex="1" connectable="0">
          <mxGeometry x="-0.1389" y="4" relative="1" as="geometry">
            <mxPoint as="offset" />
          </mxGeometry>
        </mxCell>
        <mxCell id="JRqAic6rARAx1u7xyLW3-161" value="&amp;lt;&amp;lt;uses&amp;gt;&amp;gt;" style="edgeLabel;html=1;align=center;verticalAlign=middle;resizable=0;points=[];" parent="JRqAic6rARAx1u7xyLW3-158" vertex="1" connectable="0">
          <mxGeometry x="-0.1417" y="2" relative="1" as="geometry">
            <mxPoint as="offset" />
          </mxGeometry>
        </mxCell>
        <mxCell id="JRqAic6rARAx1u7xyLW3-163" style="edgeStyle=orthogonalEdgeStyle;rounded=0;orthogonalLoop=1;jettySize=auto;html=1;startArrow=none;startFill=0;endArrow=open;endFill=0;dashed=1;" parent="1" source="JRqAic6rARAx1u7xyLW3-59" target="JRqAic6rARAx1u7xyLW3-137" edge="1">
          <mxGeometry relative="1" as="geometry">
            <Array as="points">
              <mxPoint x="80" y="500" />
              <mxPoint x="80" y="500" />
            </Array>
          </mxGeometry>
        </mxCell>
        <mxCell id="JRqAic6rARAx1u7xyLW3-164" value="&amp;lt;&amp;lt;uses&amp;gt;&amp;gt;" style="edgeLabel;html=1;align=center;verticalAlign=middle;resizable=0;points=[];" parent="JRqAic6rARAx1u7xyLW3-163" vertex="1" connectable="0">
          <mxGeometry x="0.1192" y="-2" relative="1" as="geometry">
            <mxPoint x="-12" y="10" as="offset" />
          </mxGeometry>
        </mxCell>
        <mxCell id="JRqAic6rARAx1u7xyLW3-59" value="&lt;span style=&quot;font-weight: 700&quot;&gt;Control&lt;/span&gt;" style="swimlane;fontStyle=0;align=center;verticalAlign=top;childLayout=stackLayout;horizontal=1;startSize=30;horizontalStack=0;resizeParent=1;resizeParentMax=0;resizeLast=0;collapsible=0;marginBottom=0;html=1;" parent="1" vertex="1">
          <mxGeometry x="50" y="630" width="220" height="138" as="geometry" />
        </mxCell>
        <mxCell id="JRqAic6rARAx1u7xyLW3-61" value="&lt;div&gt;-proxy:Proxy&amp;nbsp;&lt;/div&gt;&lt;div&gt;-menuFileControl:MenuFileControl&amp;nbsp;&lt;/div&gt;&lt;div&gt;-menuToolsControl:MenuToolsControl&amp;nbsp;&lt;/div&gt;" style="text;html=1;strokeColor=none;fillColor=none;align=left;verticalAlign=middle;spacingLeft=4;spacingRight=4;overflow=hidden;rotatable=0;points=[[0,0.5],[1,0.5]];portConstraint=eastwest;" parent="JRqAic6rARAx1u7xyLW3-59" vertex="1">
          <mxGeometry y="30" width="220" height="50" as="geometry" />
        </mxCell>
        <mxCell id="JRqAic6rARAx1u7xyLW3-62" value="" style="line;strokeWidth=1;fillColor=none;align=left;verticalAlign=middle;spacingTop=-1;spacingLeft=3;spacingRight=3;rotatable=0;labelPosition=right;points=[];portConstraint=eastwest;" parent="JRqAic6rARAx1u7xyLW3-59" vertex="1">
          <mxGeometry y="80" width="220" height="8" as="geometry" />
        </mxCell>
        <mxCell id="JRqAic6rARAx1u7xyLW3-64" value="&lt;div&gt;#addExtension():void&amp;nbsp;&lt;/div&gt;&lt;div&gt;+getMenuFileControl():MenuFileControl&amp;nbsp;&lt;/div&gt;&lt;div&gt;+getMenuToolsControl():MenuToolsControl&amp;nbsp;&lt;/div&gt;" style="text;html=1;strokeColor=none;fillColor=none;align=left;verticalAlign=middle;spacingLeft=4;spacingRight=4;overflow=hidden;rotatable=0;points=[[0,0.5],[1,0.5]];portConstraint=eastwest;" parent="JRqAic6rARAx1u7xyLW3-59" vertex="1">
          <mxGeometry y="88" width="220" height="50" as="geometry" />
        </mxCell>
        <mxCell id="JRqAic6rARAx1u7xyLW3-65" value="&lt;span style=&quot;font-weight: 700&quot;&gt;&lt;i&gt;AbstractControl&lt;/i&gt;&lt;/span&gt;" style="swimlane;fontStyle=0;align=center;verticalAlign=top;childLayout=stackLayout;horizontal=1;startSize=30;horizontalStack=0;resizeParent=1;resizeParentMax=0;resizeLast=0;collapsible=0;marginBottom=0;html=1;" parent="1" vertex="1">
          <mxGeometry x="390" y="578" width="230" height="140" as="geometry" />
        </mxCell>
        <mxCell id="JRqAic6rARAx1u7xyLW3-67" value="&lt;div&gt;#loader:ExtensionLoader&amp;nbsp;&lt;/div&gt;&lt;div&gt;#model:Model&amp;nbsp;&lt;/div&gt;&lt;div&gt;#view:View&amp;nbsp;&lt;/div&gt;" style="text;html=1;strokeColor=none;fillColor=none;align=left;verticalAlign=middle;spacingLeft=4;spacingRight=4;overflow=hidden;rotatable=0;points=[[0,0.5],[1,0.5]];portConstraint=eastwest;" parent="JRqAic6rARAx1u7xyLW3-65" vertex="1">
          <mxGeometry y="30" width="230" height="50" as="geometry" />
        </mxCell>
        <mxCell id="JRqAic6rARAx1u7xyLW3-68" value="" style="line;strokeWidth=1;fillColor=none;align=left;verticalAlign=middle;spacingTop=-1;spacingLeft=3;spacingRight=3;rotatable=0;labelPosition=right;points=[];portConstraint=eastwest;" parent="JRqAic6rARAx1u7xyLW3-65" vertex="1">
          <mxGeometry y="80" width="230" height="8" as="geometry" />
        </mxCell>
        <mxCell id="JRqAic6rARAx1u7xyLW3-70" value="&lt;div&gt;+getExtensionLoader():ExtensionLoader&amp;nbsp;&lt;/div&gt;&lt;div&gt;#loadExtension():void&amp;nbsp;&lt;/div&gt;&lt;div&gt;&lt;i&gt;#addExtension():void&amp;nbsp;&lt;/i&gt;&lt;/div&gt;" style="text;html=1;strokeColor=none;fillColor=none;align=left;verticalAlign=middle;spacingLeft=4;spacingRight=4;overflow=hidden;rotatable=0;points=[[0,0.5],[1,0.5]];portConstraint=eastwest;" parent="JRqAic6rARAx1u7xyLW3-65" vertex="1">
          <mxGeometry y="88" width="230" height="52" as="geometry" />
        </mxCell>
        <mxCell id="JRqAic6rARAx1u7xyLW3-171" style="edgeStyle=orthogonalEdgeStyle;rounded=0;orthogonalLoop=1;jettySize=auto;html=1;startArrow=diamond;startFill=1;endArrow=none;endFill=0;" parent="1" source="JRqAic6rARAx1u7xyLW3-71" target="JRqAic6rARAx1u7xyLW3-89" edge="1">
          <mxGeometry relative="1" as="geometry">
            <Array as="points">
              <mxPoint x="840" y="679" />
              <mxPoint x="840" y="509" />
            </Array>
          </mxGeometry>
        </mxCell>
        <mxCell id="JRqAic6rARAx1u7xyLW3-172" style="edgeStyle=orthogonalEdgeStyle;rounded=0;orthogonalLoop=1;jettySize=auto;html=1;startArrow=diamond;startFill=1;endArrow=none;endFill=0;" parent="1" source="JRqAic6rARAx1u7xyLW3-71" target="JRqAic6rARAx1u7xyLW3-95" edge="1">
          <mxGeometry relative="1" as="geometry" />
        </mxCell>
        <mxCell id="JRqAic6rARAx1u7xyLW3-188" style="edgeStyle=orthogonalEdgeStyle;rounded=0;orthogonalLoop=1;jettySize=auto;html=1;startArrow=diamond;startFill=0;endArrow=none;endFill=0;" parent="1" source="JRqAic6rARAx1u7xyLW3-59" target="JRqAic6rARAx1u7xyLW3-71" edge="1">
          <mxGeometry relative="1" as="geometry">
            <Array as="points">
              <mxPoint x="180" y="780" />
              <mxPoint x="670" y="780" />
            </Array>
          </mxGeometry>
        </mxCell>
        <mxCell id="JRqAic6rARAx1u7xyLW3-71" value="&lt;span style=&quot;font-weight: 700&quot;&gt;Proxy&lt;/span&gt;" style="swimlane;fontStyle=0;align=center;verticalAlign=top;childLayout=stackLayout;horizontal=1;startSize=30;horizontalStack=0;resizeParent=1;resizeParentMax=0;resizeLast=0;collapsible=0;marginBottom=0;html=1;" parent="1" vertex="1">
          <mxGeometry x="640" y="574" width="160" height="140" as="geometry" />
        </mxCell>
        <mxCell id="JRqAic6rARAx1u7xyLW3-73" value="&lt;div&gt;-reverseProxy:boolean&amp;nbsp;&lt;/div&gt;&lt;div&gt;-reverseProxyHost:String&amp;nbsp;&lt;/div&gt;&lt;div&gt;-cacheProcessingList:Vector&lt;/div&gt;" style="text;html=1;strokeColor=none;fillColor=none;align=left;verticalAlign=middle;spacingLeft=4;spacingRight=4;overflow=hidden;rotatable=0;points=[[0,0.5],[1,0.5]];portConstraint=eastwest;" parent="JRqAic6rARAx1u7xyLW3-71" vertex="1">
          <mxGeometry y="30" width="160" height="50" as="geometry" />
        </mxCell>
        <mxCell id="JRqAic6rARAx1u7xyLW3-74" value="" style="line;strokeWidth=1;fillColor=none;align=left;verticalAlign=middle;spacingTop=-1;spacingLeft=3;spacingRight=3;rotatable=0;labelPosition=right;points=[];portConstraint=eastwest;" parent="JRqAic6rARAx1u7xyLW3-71" vertex="1">
          <mxGeometry y="80" width="160" height="8" as="geometry" />
        </mxCell>
        <mxCell id="JRqAic6rARAx1u7xyLW3-76" value="&lt;div&gt;+startServer():void&amp;nbsp;&lt;/div&gt;&lt;div&gt;+stopServer():void&amp;nbsp;&lt;/div&gt;&lt;div&gt;+isReverseProxy():boolean&amp;nbsp;&lt;/div&gt;" style="text;html=1;strokeColor=none;fillColor=none;align=left;verticalAlign=middle;spacingLeft=4;spacingRight=4;overflow=hidden;rotatable=0;points=[[0,0.5],[1,0.5]];portConstraint=eastwest;" parent="JRqAic6rARAx1u7xyLW3-71" vertex="1">
          <mxGeometry y="88" width="160" height="52" as="geometry" />
        </mxCell>
        <mxCell id="JRqAic6rARAx1u7xyLW3-191" style="edgeStyle=orthogonalEdgeStyle;rounded=0;orthogonalLoop=1;jettySize=auto;html=1;startArrow=diamond;startFill=0;endArrow=none;endFill=0;" parent="1" source="JRqAic6rARAx1u7xyLW3-59" target="JRqAic6rARAx1u7xyLW3-77" edge="1">
          <mxGeometry relative="1" as="geometry">
            <Array as="points">
              <mxPoint x="160" y="840" />
              <mxPoint x="-390" y="840" />
              <mxPoint x="-390" y="189" />
            </Array>
          </mxGeometry>
        </mxCell>
        <mxCell id="_J8xH-ornAKhL4l1-vSx-4" style="edgeStyle=orthogonalEdgeStyle;rounded=0;orthogonalLoop=1;jettySize=auto;html=1;startArrow=open;startFill=0;endArrow=none;endFill=0;" parent="1" source="JRqAic6rARAx1u7xyLW3-59" target="JRqAic6rARAx1u7xyLW3-77" edge="1">
          <mxGeometry relative="1" as="geometry">
            <Array as="points">
              <mxPoint x="50" y="650" />
              <mxPoint x="50" y="560" />
              <mxPoint x="-330" y="560" />
              <mxPoint x="-330" y="230" />
            </Array>
          </mxGeometry>
        </mxCell>
        <mxCell id="JRqAic6rARAx1u7xyLW3-77" value="&lt;span style=&quot;font-weight: 700&quot;&gt;MenuFileControl&lt;/span&gt;" style="swimlane;fontStyle=0;align=center;verticalAlign=top;childLayout=stackLayout;horizontal=1;startSize=30;horizontalStack=0;resizeParent=1;resizeParentMax=0;resizeLast=0;collapsible=0;marginBottom=0;html=1;" parent="1" vertex="1">
          <mxGeometry x="-320" y="130" width="150" height="140" as="geometry" />
        </mxCell>
        <mxCell id="JRqAic6rARAx1u7xyLW3-79" value="&lt;div&gt;-view:View&amp;nbsp;&lt;/div&gt;&lt;div&gt;-model:Model&amp;nbsp;&lt;/div&gt;&lt;div&gt;-control:Control&amp;nbsp;&lt;/div&gt;" style="text;html=1;strokeColor=none;fillColor=none;align=left;verticalAlign=middle;spacingLeft=4;spacingRight=4;overflow=hidden;rotatable=0;points=[[0,0.5],[1,0.5]];portConstraint=eastwest;" parent="JRqAic6rARAx1u7xyLW3-77" vertex="1">
          <mxGeometry y="30" width="150" height="50" as="geometry" />
        </mxCell>
        <mxCell id="JRqAic6rARAx1u7xyLW3-80" value="" style="line;strokeWidth=1;fillColor=none;align=left;verticalAlign=middle;spacingTop=-1;spacingLeft=3;spacingRight=3;rotatable=0;labelPosition=right;points=[];portConstraint=eastwest;" parent="JRqAic6rARAx1u7xyLW3-77" vertex="1">
          <mxGeometry y="80" width="150" height="8" as="geometry" />
        </mxCell>
        <mxCell id="JRqAic6rARAx1u7xyLW3-82" value="&lt;div&gt;&lt;span&gt;+exit():void&amp;nbsp;&lt;/span&gt;&lt;br&gt;&lt;/div&gt;&lt;div&gt;+openSession():void&amp;nbsp;&lt;/div&gt;&lt;div&gt;+saveSession():void&amp;nbsp;&lt;/div&gt;" style="text;html=1;strokeColor=none;fillColor=none;align=left;verticalAlign=middle;spacingLeft=4;spacingRight=4;overflow=hidden;rotatable=0;points=[[0,0.5],[1,0.5]];portConstraint=eastwest;" parent="JRqAic6rARAx1u7xyLW3-77" vertex="1">
          <mxGeometry y="88" width="150" height="52" as="geometry" />
        </mxCell>
        <mxCell id="JRqAic6rARAx1u7xyLW3-177" style="edgeStyle=orthogonalEdgeStyle;rounded=0;orthogonalLoop=1;jettySize=auto;html=1;startArrow=open;startFill=0;endArrow=none;endFill=0;dashed=1;" parent="1" source="JRqAic6rARAx1u7xyLW3-11" target="JRqAic6rARAx1u7xyLW3-83" edge="1">
          <mxGeometry relative="1" as="geometry">
            <Array as="points">
              <mxPoint x="-110" y="160" />
              <mxPoint x="-110" y="639" />
            </Array>
          </mxGeometry>
        </mxCell>
        <mxCell id="JRqAic6rARAx1u7xyLW3-178" value="&amp;lt;&amp;lt;uses&amp;gt;&amp;gt;" style="edgeLabel;html=1;align=center;verticalAlign=middle;resizable=0;points=[];" parent="JRqAic6rARAx1u7xyLW3-177" vertex="1" connectable="0">
          <mxGeometry x="0.122" relative="1" as="geometry">
            <mxPoint as="offset" />
          </mxGeometry>
        </mxCell>
        <mxCell id="JRqAic6rARAx1u7xyLW3-179" style="edgeStyle=orthogonalEdgeStyle;rounded=0;orthogonalLoop=1;jettySize=auto;html=1;dashed=1;startArrow=open;startFill=0;endArrow=none;endFill=0;" parent="1" source="JRqAic6rARAx1u7xyLW3-137" target="JRqAic6rARAx1u7xyLW3-83" edge="1">
          <mxGeometry relative="1" as="geometry">
            <Array as="points">
              <mxPoint x="-160" y="250" />
              <mxPoint x="-160" y="600" />
            </Array>
          </mxGeometry>
        </mxCell>
        <mxCell id="JRqAic6rARAx1u7xyLW3-180" value="&amp;lt;&amp;lt;uses&amp;gt;&amp;gt;" style="edgeLabel;html=1;align=center;verticalAlign=middle;resizable=0;points=[];" parent="JRqAic6rARAx1u7xyLW3-179" vertex="1" connectable="0">
          <mxGeometry x="-0.4237" y="4" relative="1" as="geometry">
            <mxPoint as="offset" />
          </mxGeometry>
        </mxCell>
        <mxCell id="JRqAic6rARAx1u7xyLW3-181" style="edgeStyle=orthogonalEdgeStyle;rounded=0;orthogonalLoop=1;jettySize=auto;html=1;dashed=1;startArrow=open;startFill=0;endArrow=none;endFill=0;" parent="1" source="JRqAic6rARAx1u7xyLW3-59" target="JRqAic6rARAx1u7xyLW3-83" edge="1">
          <mxGeometry relative="1" as="geometry">
            <Array as="points">
              <mxPoint x="-40" y="680" />
              <mxPoint x="-40" y="680" />
            </Array>
          </mxGeometry>
        </mxCell>
        <mxCell id="JRqAic6rARAx1u7xyLW3-182" value="&amp;lt;&amp;lt;uses&amp;gt;&amp;gt;" style="edgeLabel;html=1;align=center;verticalAlign=middle;resizable=0;points=[];" parent="JRqAic6rARAx1u7xyLW3-181" vertex="1" connectable="0">
          <mxGeometry x="0.381" y="3" relative="1" as="geometry">
            <mxPoint as="offset" />
          </mxGeometry>
        </mxCell>
        <mxCell id="JRqAic6rARAx1u7xyLW3-189" style="edgeStyle=orthogonalEdgeStyle;rounded=0;orthogonalLoop=1;jettySize=auto;html=1;startArrow=diamond;startFill=0;endArrow=none;endFill=0;" parent="1" source="JRqAic6rARAx1u7xyLW3-59" target="JRqAic6rARAx1u7xyLW3-83" edge="1">
          <mxGeometry relative="1" as="geometry">
            <Array as="points">
              <mxPoint x="140" y="760" />
              <mxPoint x="-260" y="760" />
            </Array>
          </mxGeometry>
        </mxCell>
        <mxCell id="JRqAic6rARAx1u7xyLW3-83" value="&lt;span style=&quot;font-weight: 700&quot;&gt;MenuToolsControl&lt;/span&gt;" style="swimlane;fontStyle=0;align=center;verticalAlign=top;childLayout=stackLayout;horizontal=1;startSize=30;horizontalStack=0;resizeParent=1;resizeParentMax=0;resizeLast=0;collapsible=0;marginBottom=0;html=1;" parent="1" vertex="1">
          <mxGeometry x="-330" y="580" width="140" height="108" as="geometry" />
        </mxCell>
        <mxCell id="JRqAic6rARAx1u7xyLW3-85" value="&lt;div&gt;-view:View&amp;nbsp;&lt;/div&gt;&lt;div&gt;-model:Model&amp;nbsp;&lt;/div&gt;&lt;div&gt;-control:Control&amp;nbsp;&lt;/div&gt;" style="text;html=1;strokeColor=none;fillColor=none;align=left;verticalAlign=middle;spacingLeft=4;spacingRight=4;overflow=hidden;rotatable=0;points=[[0,0.5],[1,0.5]];portConstraint=eastwest;" parent="JRqAic6rARAx1u7xyLW3-83" vertex="1">
          <mxGeometry y="30" width="140" height="50" as="geometry" />
        </mxCell>
        <mxCell id="JRqAic6rARAx1u7xyLW3-86" value="" style="line;strokeWidth=1;fillColor=none;align=left;verticalAlign=middle;spacingTop=-1;spacingLeft=3;spacingRight=3;rotatable=0;labelPosition=right;points=[];portConstraint=eastwest;" parent="JRqAic6rARAx1u7xyLW3-83" vertex="1">
          <mxGeometry y="80" width="140" height="8" as="geometry" />
        </mxCell>
        <mxCell id="JRqAic6rARAx1u7xyLW3-88" value="+options():void&amp;nbsp;" style="text;html=1;strokeColor=none;fillColor=none;align=left;verticalAlign=middle;spacingLeft=4;spacingRight=4;overflow=hidden;rotatable=0;points=[[0,0.5],[1,0.5]];portConstraint=eastwest;" parent="JRqAic6rARAx1u7xyLW3-83" vertex="1">
          <mxGeometry y="88" width="140" height="20" as="geometry" />
        </mxCell>
        <mxCell id="JRqAic6rARAx1u7xyLW3-183" style="edgeStyle=orthogonalEdgeStyle;rounded=0;orthogonalLoop=1;jettySize=auto;html=1;dashed=1;startArrow=open;startFill=0;endArrow=none;endFill=0;" parent="1" source="JRqAic6rARAx1u7xyLW3-131" target="JRqAic6rARAx1u7xyLW3-89" edge="1">
          <mxGeometry relative="1" as="geometry" />
        </mxCell>
        <mxCell id="JRqAic6rARAx1u7xyLW3-184" value="&amp;lt;&amp;lt;uses&amp;gt;&amp;gt;" style="edgeLabel;html=1;align=center;verticalAlign=middle;resizable=0;points=[];" parent="JRqAic6rARAx1u7xyLW3-183" vertex="1" connectable="0">
          <mxGeometry x="-0.1658" y="-1" relative="1" as="geometry">
            <mxPoint as="offset" />
          </mxGeometry>
        </mxCell>
        <mxCell id="JRqAic6rARAx1u7xyLW3-185" style="edgeStyle=orthogonalEdgeStyle;rounded=0;orthogonalLoop=1;jettySize=auto;html=1;startArrow=diamond;startFill=1;endArrow=none;endFill=0;" parent="1" source="JRqAic6rARAx1u7xyLW3-89" target="JRqAic6rARAx1u7xyLW3-101" edge="1">
          <mxGeometry relative="1" as="geometry">
            <Array as="points">
              <mxPoint x="960" y="630" />
              <mxPoint x="960" y="630" />
            </Array>
          </mxGeometry>
        </mxCell>
        <mxCell id="JRqAic6rARAx1u7xyLW3-89" value="&lt;span style=&quot;font-weight: 700&quot;&gt;ProxyServer&lt;/span&gt;" style="swimlane;fontStyle=0;align=center;verticalAlign=top;childLayout=stackLayout;horizontal=1;startSize=30;horizontalStack=0;resizeParent=1;resizeParentMax=0;resizeLast=0;collapsible=0;marginBottom=0;html=1;" parent="1" vertex="1">
          <mxGeometry x="870" y="450" width="200" height="140" as="geometry" />
        </mxCell>
        <mxCell id="JRqAic6rARAx1u7xyLW3-91" value="&lt;div&gt;#thread:Thread&lt;span&gt; &lt;/span&gt;&lt;/div&gt;&lt;div&gt;&lt;u&gt;#PORT_TIME_OUT:int&amp;nbsp;&lt;/u&gt;&lt;/div&gt;&lt;div&gt;#proxySocket:ServerSocket&amp;nbsp;&lt;/div&gt;" style="text;html=1;strokeColor=none;fillColor=none;align=left;verticalAlign=middle;spacingLeft=4;spacingRight=4;overflow=hidden;rotatable=0;points=[[0,0.5],[1,0.5]];portConstraint=eastwest;" parent="JRqAic6rARAx1u7xyLW3-89" vertex="1">
          <mxGeometry y="30" width="200" height="50" as="geometry" />
        </mxCell>
        <mxCell id="JRqAic6rARAx1u7xyLW3-92" value="" style="line;strokeWidth=1;fillColor=none;align=left;verticalAlign=middle;spacingTop=-1;spacingLeft=3;spacingRight=3;rotatable=0;labelPosition=right;points=[];portConstraint=eastwest;" parent="JRqAic6rARAx1u7xyLW3-89" vertex="1">
          <mxGeometry y="80" width="200" height="8" as="geometry" />
        </mxCell>
        <mxCell id="JRqAic6rARAx1u7xyLW3-94" value="&lt;div&gt;+isSerialize():boolean&amp;nbsp;&lt;/div&gt;&lt;div&gt;+getConnectionParam():ConnectionParam&amp;nbsp;&lt;/div&gt;&lt;div&gt;+getProxyParam():ProxyParam&amp;nbsp;&lt;/div&gt;" style="text;html=1;strokeColor=none;fillColor=none;align=left;verticalAlign=middle;spacingLeft=4;spacingRight=4;overflow=hidden;rotatable=0;points=[[0,0.5],[1,0.5]];portConstraint=eastwest;" parent="JRqAic6rARAx1u7xyLW3-89" vertex="1">
          <mxGeometry y="88" width="200" height="52" as="geometry" />
        </mxCell>
        <mxCell id="JRqAic6rARAx1u7xyLW3-95" value="&lt;span style=&quot;font-weight: 700&quot;&gt;ProxyServerSSL&lt;/span&gt;" style="swimlane;fontStyle=0;align=center;verticalAlign=top;childLayout=stackLayout;horizontal=1;startSize=30;horizontalStack=0;resizeParent=1;resizeParentMax=0;resizeLast=0;collapsible=0;marginBottom=0;html=1;" parent="1" vertex="1">
          <mxGeometry x="560" y="869" width="320" height="100" as="geometry" />
        </mxCell>
        <mxCell id="JRqAic6rARAx1u7xyLW3-97" value="&lt;u&gt;-ssl:SSLConnector&amp;nbsp;&lt;/u&gt;" style="text;html=1;strokeColor=none;fillColor=none;align=left;verticalAlign=middle;spacingLeft=4;spacingRight=4;overflow=hidden;rotatable=0;points=[[0,0.5],[1,0.5]];portConstraint=eastwest;" parent="JRqAic6rARAx1u7xyLW3-95" vertex="1">
          <mxGeometry y="30" width="320" height="20" as="geometry" />
        </mxCell>
        <mxCell id="JRqAic6rARAx1u7xyLW3-98" value="" style="line;strokeWidth=1;fillColor=none;align=left;verticalAlign=middle;spacingTop=-1;spacingLeft=3;spacingRight=3;rotatable=0;labelPosition=right;points=[];portConstraint=eastwest;" parent="JRqAic6rARAx1u7xyLW3-95" vertex="1">
          <mxGeometry y="50" width="320" height="8" as="geometry" />
        </mxCell>
        <mxCell id="JRqAic6rARAx1u7xyLW3-100" value="&lt;div&gt;#createProxyProcess(clientSocket:Socket ):ProxyThread&amp;nbsp;&lt;/div&gt;&lt;div&gt;#createServerSocket(ip:String , port:int ):ServerSocket&amp;nbsp;&lt;/div&gt;" style="text;html=1;strokeColor=none;fillColor=none;align=left;verticalAlign=middle;spacingLeft=4;spacingRight=4;overflow=hidden;rotatable=0;points=[[0,0.5],[1,0.5]];portConstraint=eastwest;" parent="JRqAic6rARAx1u7xyLW3-95" vertex="1">
          <mxGeometry y="58" width="320" height="42" as="geometry" />
        </mxCell>
        <mxCell id="JRqAic6rARAx1u7xyLW3-204" style="edgeStyle=orthogonalEdgeStyle;rounded=0;orthogonalLoop=1;jettySize=auto;html=1;startArrow=diamond;startFill=1;endArrow=none;endFill=0;" parent="1" source="JRqAic6rARAx1u7xyLW3-119" target="JRqAic6rARAx1u7xyLW3-101" edge="1">
          <mxGeometry relative="1" as="geometry">
            <Array as="points">
              <mxPoint x="1110" y="-140" />
              <mxPoint x="1110" y="670" />
              <mxPoint x="1000" y="670" />
            </Array>
          </mxGeometry>
        </mxCell>
        <mxCell id="JRqAic6rARAx1u7xyLW3-101" value="&lt;span style=&quot;font-weight: 700&quot;&gt;ProxyParam&lt;/span&gt;" style="swimlane;fontStyle=0;align=center;verticalAlign=top;childLayout=stackLayout;horizontal=1;startSize=30;horizontalStack=0;resizeParent=1;resizeParentMax=0;resizeLast=0;collapsible=0;marginBottom=0;html=1;" parent="1" vertex="1">
          <mxGeometry x="810" y="710" width="300" height="140" as="geometry" />
        </mxCell>
        <mxCell id="JRqAic6rARAx1u7xyLW3-103" value="&lt;div&gt;&lt;u&gt;-USE_REVERSE_PROXY:String&amp;nbsp;&lt;/u&gt;&lt;/div&gt;&lt;div&gt;&lt;u&gt;-REVERSE_PROXY_IP:String&amp;nbsp;&lt;/u&gt;&lt;/div&gt;&lt;div&gt;&lt;u&gt;-REVERSE_PROXY_HTTP_PORT:String&amp;nbsp;&lt;/u&gt;&lt;/div&gt;" style="text;html=1;strokeColor=none;fillColor=none;align=left;verticalAlign=middle;spacingLeft=4;spacingRight=4;overflow=hidden;rotatable=0;points=[[0,0.5],[1,0.5]];portConstraint=eastwest;" parent="JRqAic6rARAx1u7xyLW3-101" vertex="1">
          <mxGeometry y="30" width="300" height="50" as="geometry" />
        </mxCell>
        <mxCell id="JRqAic6rARAx1u7xyLW3-104" value="" style="line;strokeWidth=1;fillColor=none;align=left;verticalAlign=middle;spacingTop=-1;spacingLeft=3;spacingRight=3;rotatable=0;labelPosition=right;points=[];portConstraint=eastwest;" parent="JRqAic6rARAx1u7xyLW3-101" vertex="1">
          <mxGeometry y="80" width="300" height="8" as="geometry" />
        </mxCell>
        <mxCell id="JRqAic6rARAx1u7xyLW3-106" value="&lt;div&gt;+getProxyIp():String&amp;nbsp;&lt;/div&gt;&lt;div&gt;+getProxyPort():int&amp;nbsp;&lt;/div&gt;&lt;div&gt;+getProxySSLPort():int&amp;nbsp;&lt;/div&gt;" style="text;html=1;strokeColor=none;fillColor=none;align=left;verticalAlign=middle;spacingLeft=4;spacingRight=4;overflow=hidden;rotatable=0;points=[[0,0.5],[1,0.5]];portConstraint=eastwest;" parent="JRqAic6rARAx1u7xyLW3-101" vertex="1">
          <mxGeometry y="88" width="300" height="52" as="geometry" />
        </mxCell>
        <mxCell id="JRqAic6rARAx1u7xyLW3-186" style="edgeStyle=orthogonalEdgeStyle;rounded=0;orthogonalLoop=1;jettySize=auto;html=1;startArrow=open;startFill=0;endArrow=none;endFill=0;" parent="1" source="JRqAic6rARAx1u7xyLW3-107" target="JRqAic6rARAx1u7xyLW3-89" edge="1">
          <mxGeometry relative="1" as="geometry">
            <Array as="points">
              <mxPoint x="1200" y="500" />
            </Array>
          </mxGeometry>
        </mxCell>
        <mxCell id="JRqAic6rARAx1u7xyLW3-107" value="&lt;span style=&quot;font-weight: 700&quot;&gt;ProxyThread&lt;/span&gt;" style="swimlane;fontStyle=0;align=center;verticalAlign=top;childLayout=stackLayout;horizontal=1;startSize=30;horizontalStack=0;resizeParent=1;resizeParentMax=0;resizeLast=0;collapsible=0;marginBottom=0;html=1;" parent="1" vertex="1">
          <mxGeometry x="1150" y="589" width="160" height="140" as="geometry" />
        </mxCell>
        <mxCell id="JRqAic6rARAx1u7xyLW3-109" value="&lt;div&gt;#parentServer:ProxyServer&amp;nbsp;&lt;/div&gt;&lt;div&gt;#proxyParam:ProxyParam&amp;nbsp;&lt;/div&gt;&lt;div&gt;#connectionParam:ConnectionParam&amp;nbsp;&lt;/div&gt;" style="text;html=1;strokeColor=none;fillColor=none;align=left;verticalAlign=middle;spacingLeft=4;spacingRight=4;overflow=hidden;rotatable=0;points=[[0,0.5],[1,0.5]];portConstraint=eastwest;" parent="JRqAic6rARAx1u7xyLW3-107" vertex="1">
          <mxGeometry y="30" width="160" height="50" as="geometry" />
        </mxCell>
        <mxCell id="JRqAic6rARAx1u7xyLW3-110" value="" style="line;strokeWidth=1;fillColor=none;align=left;verticalAlign=middle;spacingTop=-1;spacingLeft=3;spacingRight=3;rotatable=0;labelPosition=right;points=[];portConstraint=eastwest;" parent="JRqAic6rARAx1u7xyLW3-107" vertex="1">
          <mxGeometry y="80" width="160" height="8" as="geometry" />
        </mxCell>
        <mxCell id="JRqAic6rARAx1u7xyLW3-112" value="&lt;div&gt;+start():void&amp;nbsp;&lt;/div&gt;&lt;div&gt;-beginSSL():void&amp;nbsp;&lt;/div&gt;&lt;div&gt;+run():void&amp;nbsp;&lt;/div&gt;" style="text;html=1;strokeColor=none;fillColor=none;align=left;verticalAlign=middle;spacingLeft=4;spacingRight=4;overflow=hidden;rotatable=0;points=[[0,0.5],[1,0.5]];portConstraint=eastwest;" parent="JRqAic6rARAx1u7xyLW3-107" vertex="1">
          <mxGeometry y="88" width="160" height="52" as="geometry" />
        </mxCell>
        <mxCell id="JRqAic6rARAx1u7xyLW3-113" value="&lt;span style=&quot;font-weight: 700&quot;&gt;Database&lt;/span&gt;" style="swimlane;fontStyle=0;align=center;verticalAlign=top;childLayout=stackLayout;horizontal=1;startSize=30;horizontalStack=0;resizeParent=1;resizeParentMax=0;resizeLast=0;collapsible=0;marginBottom=0;html=1;" parent="1" vertex="1">
          <mxGeometry x="-40" y="-270" width="340" height="150" as="geometry" />
        </mxCell>
        <mxCell id="JRqAic6rARAx1u7xyLW3-115" value="-databaseServer : DatabaseServer&lt;br&gt;-tableHistory :&amp;nbsp;TableHistory&lt;br&gt;-tableSession :&amp;nbsp;TableSession" style="text;html=1;strokeColor=none;fillColor=none;align=left;verticalAlign=middle;spacingLeft=4;spacingRight=4;overflow=hidden;rotatable=0;points=[[0,0.5],[1,0.5]];portConstraint=eastwest;" parent="JRqAic6rARAx1u7xyLW3-113" vertex="1">
          <mxGeometry y="30" width="340" height="50" as="geometry" />
        </mxCell>
        <mxCell id="JRqAic6rARAx1u7xyLW3-116" value="" style="line;strokeWidth=1;fillColor=none;align=left;verticalAlign=middle;spacingTop=-1;spacingLeft=3;spacingRight=3;rotatable=0;labelPosition=right;points=[];portConstraint=eastwest;" parent="JRqAic6rARAx1u7xyLW3-113" vertex="1">
          <mxGeometry y="80" width="340" height="8" as="geometry" />
        </mxCell>
        <mxCell id="JRqAic6rARAx1u7xyLW3-118" value="+open(path:String) : void&lt;br&gt;+close(compact:boolean&amp;nbsp;) : void&lt;br&gt;-setDatabaseServer (databaseServer:DatabaseServer&amp;nbsp;): void&amp;nbsp;" style="text;html=1;strokeColor=none;fillColor=none;align=left;verticalAlign=middle;spacingLeft=4;spacingRight=4;overflow=hidden;rotatable=0;points=[[0,0.5],[1,0.5]];portConstraint=eastwest;" parent="JRqAic6rARAx1u7xyLW3-113" vertex="1">
          <mxGeometry y="88" width="340" height="62" as="geometry" />
        </mxCell>
        <mxCell id="JRqAic6rARAx1u7xyLW3-200" style="edgeStyle=orthogonalEdgeStyle;rounded=0;orthogonalLoop=1;jettySize=auto;html=1;dashed=1;startArrow=open;startFill=0;endArrow=none;endFill=0;" parent="1" source="JRqAic6rARAx1u7xyLW3-44" target="JRqAic6rARAx1u7xyLW3-119" edge="1">
          <mxGeometry relative="1" as="geometry">
            <Array as="points">
              <mxPoint x="590" y="419" />
              <mxPoint x="590" y="-131" />
            </Array>
          </mxGeometry>
        </mxCell>
        <mxCell id="JRqAic6rARAx1u7xyLW3-201" value="&amp;lt;&amp;lt;uses&amp;gt;&amp;gt;" style="edgeLabel;html=1;align=center;verticalAlign=middle;resizable=0;points=[];" parent="JRqAic6rARAx1u7xyLW3-200" vertex="1" connectable="0">
          <mxGeometry x="0.4968" y="-1" relative="1" as="geometry">
            <mxPoint y="-1" as="offset" />
          </mxGeometry>
        </mxCell>
        <mxCell id="JRqAic6rARAx1u7xyLW3-202" style="edgeStyle=orthogonalEdgeStyle;rounded=0;orthogonalLoop=1;jettySize=auto;html=1;startArrow=block;startFill=0;endArrow=none;endFill=0;" parent="1" source="JRqAic6rARAx1u7xyLW3-149" target="JRqAic6rARAx1u7xyLW3-119" edge="1">
          <mxGeometry relative="1" as="geometry">
            <Array as="points">
              <mxPoint x="430" y="-221" />
            </Array>
          </mxGeometry>
        </mxCell>
        <mxCell id="JRqAic6rARAx1u7xyLW3-119" value="&lt;span style=&quot;font-weight: 700&quot;&gt;OptionsParam&lt;/span&gt;" style="swimlane;fontStyle=0;align=center;verticalAlign=top;childLayout=stackLayout;horizontal=1;startSize=30;horizontalStack=0;resizeParent=1;resizeParentMax=0;resizeLast=0;collapsible=0;marginBottom=0;html=1;" parent="1" vertex="1">
          <mxGeometry x="360" y="-210" width="240" height="140" as="geometry" />
        </mxCell>
        <mxCell id="JRqAic6rARAx1u7xyLW3-121" value="&lt;div&gt;-config:XMLConfiguration&lt;/div&gt;&lt;div&gt;-gui:boolean&lt;/div&gt;&lt;div&gt;-userDirectory:File&amp;nbsp;&amp;nbsp;&lt;/div&gt;" style="text;html=1;strokeColor=none;fillColor=none;align=left;verticalAlign=middle;spacingLeft=4;spacingRight=4;overflow=hidden;rotatable=0;points=[[0,0.5],[1,0.5]];portConstraint=eastwest;" parent="JRqAic6rARAx1u7xyLW3-119" vertex="1">
          <mxGeometry y="30" width="240" height="50" as="geometry" />
        </mxCell>
        <mxCell id="JRqAic6rARAx1u7xyLW3-122" value="" style="line;strokeWidth=1;fillColor=none;align=left;verticalAlign=middle;spacingTop=-1;spacingLeft=3;spacingRight=3;rotatable=0;labelPosition=right;points=[];portConstraint=eastwest;" parent="JRqAic6rARAx1u7xyLW3-119" vertex="1">
          <mxGeometry y="80" width="240" height="8" as="geometry" />
        </mxCell>
        <mxCell id="JRqAic6rARAx1u7xyLW3-124" value="&lt;div&gt;+getConnectionParam():ConnectionParam&amp;nbsp;&lt;/div&gt;&lt;div&gt;+getProxyParam():ProxyParam&amp;nbsp;&lt;/div&gt;&lt;div&gt;+getViewParam():OptionsParamView&amp;nbsp;&lt;/div&gt;" style="text;html=1;strokeColor=none;fillColor=none;align=left;verticalAlign=middle;spacingLeft=4;spacingRight=4;overflow=hidden;rotatable=0;points=[[0,0.5],[1,0.5]];portConstraint=eastwest;" parent="JRqAic6rARAx1u7xyLW3-119" vertex="1">
          <mxGeometry y="88" width="240" height="52" as="geometry" />
        </mxCell>
        <mxCell id="JRqAic6rARAx1u7xyLW3-131" value="&lt;span style=&quot;font-weight: 700&quot;&gt;HttpUtil&lt;/span&gt;" style="swimlane;fontStyle=0;align=center;verticalAlign=top;childLayout=stackLayout;horizontal=1;startSize=30;horizontalStack=0;resizeParent=1;resizeParentMax=0;resizeLast=0;collapsible=0;marginBottom=0;html=1;" parent="1" vertex="1">
          <mxGeometry x="780" y="220" width="300" height="120" as="geometry" />
        </mxCell>
        <mxCell id="JRqAic6rARAx1u7xyLW3-134" value="" style="line;strokeWidth=1;fillColor=none;align=left;verticalAlign=middle;spacingTop=-1;spacingLeft=3;spacingRight=3;rotatable=0;labelPosition=right;points=[];portConstraint=eastwest;" parent="JRqAic6rARAx1u7xyLW3-131" vertex="1">
          <mxGeometry y="30" width="300" height="38" as="geometry" />
        </mxCell>
        <mxCell id="JRqAic6rARAx1u7xyLW3-136" value="&lt;div&gt;&lt;u&gt;+sleep(ms:int):void&amp;nbsp;&lt;/u&gt;&lt;/div&gt;&lt;div&gt;&lt;u&gt;+closeServerSocket(socket:ServerSocket):void&amp;nbsp;&lt;/u&gt;&lt;/div&gt;&lt;div&gt;&lt;u&gt;+closeSocket(socket:Socket):void&amp;nbsp;&lt;/u&gt;&lt;/div&gt;" style="text;html=1;strokeColor=none;fillColor=none;align=left;verticalAlign=middle;spacingLeft=4;spacingRight=4;overflow=hidden;rotatable=0;points=[[0,0.5],[1,0.5]];portConstraint=eastwest;" parent="JRqAic6rARAx1u7xyLW3-131" vertex="1">
          <mxGeometry y="68" width="300" height="52" as="geometry" />
        </mxCell>
        <mxCell id="JRqAic6rARAx1u7xyLW3-166" style="edgeStyle=orthogonalEdgeStyle;rounded=0;orthogonalLoop=1;jettySize=auto;html=1;startArrow=none;startFill=0;endArrow=open;endFill=0;" parent="1" source="JRqAic6rARAx1u7xyLW3-65" target="JRqAic6rARAx1u7xyLW3-137" edge="1">
          <mxGeometry relative="1" as="geometry">
            <Array as="points">
              <mxPoint x="570" y="659" />
              <mxPoint x="570" y="279" />
            </Array>
          </mxGeometry>
        </mxCell>
        <mxCell id="JRqAic6rARAx1u7xyLW3-174" style="edgeStyle=orthogonalEdgeStyle;rounded=0;orthogonalLoop=1;jettySize=auto;html=1;startArrow=open;startFill=0;endArrow=none;endFill=0;" parent="1" source="JRqAic6rARAx1u7xyLW3-137" target="JRqAic6rARAx1u7xyLW3-77" edge="1">
          <mxGeometry relative="1" as="geometry">
            <Array as="points">
              <mxPoint x="-30" y="310" />
              <mxPoint x="-30" y="230" />
            </Array>
          </mxGeometry>
        </mxCell>
        <mxCell id="JRqAic6rARAx1u7xyLW3-206" style="edgeStyle=orthogonalEdgeStyle;rounded=0;orthogonalLoop=1;jettySize=auto;html=1;startArrow=open;startFill=0;endArrow=none;endFill=0;dashed=1;" parent="1" source="JRqAic6rARAx1u7xyLW3-44" target="JRqAic6rARAx1u7xyLW3-137" edge="1">
          <mxGeometry relative="1" as="geometry">
            <Array as="points">
              <mxPoint x="390" y="250" />
            </Array>
          </mxGeometry>
        </mxCell>
        <mxCell id="JRqAic6rARAx1u7xyLW3-207" value="&amp;lt;&amp;lt;uses&amp;gt;&amp;gt;" style="edgeLabel;html=1;align=center;verticalAlign=middle;resizable=0;points=[];" parent="JRqAic6rARAx1u7xyLW3-206" vertex="1" connectable="0">
          <mxGeometry x="0.639" y="4" relative="1" as="geometry">
            <mxPoint as="offset" />
          </mxGeometry>
        </mxCell>
        <mxCell id="JRqAic6rARAx1u7xyLW3-208" style="edgeStyle=orthogonalEdgeStyle;rounded=0;orthogonalLoop=1;jettySize=auto;html=1;dashed=1;startArrow=block;startFill=0;endArrow=none;endFill=0;" parent="1" source="JRqAic6rARAx1u7xyLW3-143" target="JRqAic6rARAx1u7xyLW3-137" edge="1">
          <mxGeometry relative="1" as="geometry">
            <Array as="points">
              <mxPoint x="290" y="290" />
            </Array>
          </mxGeometry>
        </mxCell>
        <mxCell id="JRqAic6rARAx1u7xyLW3-137" value="&lt;span style=&quot;font-weight: 700&quot;&gt;View&lt;/span&gt;" style="swimlane;fontStyle=0;align=center;verticalAlign=top;childLayout=stackLayout;horizontal=1;startSize=30;horizontalStack=0;resizeParent=1;resizeParentMax=0;resizeLast=0;collapsible=0;marginBottom=0;html=1;" parent="1" vertex="1">
          <mxGeometry x="80" y="220" width="200" height="120" as="geometry" />
        </mxCell>
        <mxCell id="JRqAic6rARAx1u7xyLW3-139" value="&lt;div&gt;-mainFrame:MainFrame&amp;nbsp;&lt;/div&gt;&lt;div&gt;-requestPane:HttpPanel&amp;nbsp;&lt;/div&gt;&lt;div&gt;-responsePanel:HttpPanel&lt;/div&gt;" style="text;html=1;strokeColor=none;fillColor=none;align=left;verticalAlign=middle;spacingLeft=4;spacingRight=4;overflow=hidden;rotatable=0;points=[[0,0.5],[1,0.5]];portConstraint=eastwest;" parent="JRqAic6rARAx1u7xyLW3-137" vertex="1">
          <mxGeometry y="30" width="200" height="20" as="geometry" />
        </mxCell>
        <mxCell id="JRqAic6rARAx1u7xyLW3-140" value="" style="line;strokeWidth=1;fillColor=none;align=left;verticalAlign=middle;spacingTop=-1;spacingLeft=3;spacingRight=3;rotatable=0;labelPosition=right;points=[];portConstraint=eastwest;" parent="JRqAic6rARAx1u7xyLW3-137" vertex="1">
          <mxGeometry y="50" width="200" height="8" as="geometry" />
        </mxCell>
        <mxCell id="JRqAic6rARAx1u7xyLW3-142" value="&lt;div&gt;+getSiteTreePanel():SiteMapPanel&amp;nbsp;&lt;/div&gt;&lt;div&gt;+getOutputPanel():OutputPanel&amp;nbsp;&lt;/div&gt;&lt;div&gt;+getRequestPanel():HttpPanel&lt;/div&gt;" style="text;html=1;strokeColor=none;fillColor=none;align=left;verticalAlign=middle;spacingLeft=4;spacingRight=4;overflow=hidden;rotatable=0;points=[[0,0.5],[1,0.5]];portConstraint=eastwest;" parent="JRqAic6rARAx1u7xyLW3-137" vertex="1">
          <mxGeometry y="58" width="200" height="62" as="geometry" />
        </mxCell>
        <mxCell id="JRqAic6rARAx1u7xyLW3-143" value="&lt;span style=&quot;font-weight: 700&quot;&gt;&amp;lt;&amp;lt;interface&amp;gt;&amp;gt;&lt;br&gt;ViewDelegate&lt;br&gt;&lt;br&gt;&lt;/span&gt;" style="swimlane;fontStyle=0;align=center;verticalAlign=top;childLayout=stackLayout;horizontal=1;startSize=40;horizontalStack=0;resizeParent=1;resizeParentMax=0;resizeLast=0;collapsible=0;marginBottom=0;html=1;" parent="1" vertex="1">
          <mxGeometry x="240" y="849" width="200" height="130" as="geometry" />
        </mxCell>
        <mxCell id="JRqAic6rARAx1u7xyLW3-146" value="" style="line;strokeWidth=1;fillColor=none;align=left;verticalAlign=middle;spacingTop=-1;spacingLeft=3;spacingRight=3;rotatable=0;labelPosition=right;points=[];portConstraint=eastwest;" parent="JRqAic6rARAx1u7xyLW3-143" vertex="1">
          <mxGeometry y="40" width="200" height="40" as="geometry" />
        </mxCell>
        <mxCell id="JRqAic6rARAx1u7xyLW3-148" value="&lt;div&gt;+getMainFrame():MainFrame&amp;nbsp;&lt;/div&gt;&lt;div&gt;+getSiteTreePanel():SiteMapPanel&amp;nbsp;&lt;/div&gt;&lt;div&gt;+getOutputPanel():OutputPanel&amp;nbsp;&lt;/div&gt;" style="text;html=1;strokeColor=none;fillColor=none;align=left;verticalAlign=middle;spacingLeft=4;spacingRight=4;overflow=hidden;rotatable=0;points=[[0,0.5],[1,0.5]];portConstraint=eastwest;" parent="JRqAic6rARAx1u7xyLW3-143" vertex="1">
          <mxGeometry y="80" width="200" height="50" as="geometry" />
        </mxCell>
        <mxCell id="JRqAic6rARAx1u7xyLW3-149" value="&lt;span style=&quot;font-weight: 700&quot;&gt;&lt;i&gt;AbstractParam&lt;/i&gt;&lt;/span&gt;" style="swimlane;fontStyle=0;align=center;verticalAlign=top;childLayout=stackLayout;horizontal=1;startSize=30;horizontalStack=0;resizeParent=1;resizeParentMax=0;resizeLast=0;collapsible=0;marginBottom=0;html=1;" parent="1" vertex="1">
          <mxGeometry x="690" y="-330" width="230" height="120" as="geometry" />
        </mxCell>
        <mxCell id="JRqAic6rARAx1u7xyLW3-151" value="-config:FileConfiguration&amp;nbsp;" style="text;html=1;strokeColor=none;fillColor=none;align=left;verticalAlign=middle;spacingLeft=4;spacingRight=4;overflow=hidden;rotatable=0;points=[[0,0.5],[1,0.5]];portConstraint=eastwest;" parent="JRqAic6rARAx1u7xyLW3-149" vertex="1">
          <mxGeometry y="30" width="230" height="20" as="geometry" />
        </mxCell>
        <mxCell id="JRqAic6rARAx1u7xyLW3-152" value="" style="line;strokeWidth=1;fillColor=none;align=left;verticalAlign=middle;spacingTop=-1;spacingLeft=3;spacingRight=3;rotatable=0;labelPosition=right;points=[];portConstraint=eastwest;" parent="JRqAic6rARAx1u7xyLW3-149" vertex="1">
          <mxGeometry y="50" width="230" height="8" as="geometry" />
        </mxCell>
        <mxCell id="JRqAic6rARAx1u7xyLW3-154" value="&lt;div&gt;+load(config:FileConfiguration):void&amp;nbsp;&lt;/div&gt;&lt;div&gt;+load(fileName:String):void&amp;nbsp;&lt;/div&gt;&lt;div&gt;+load():void&amp;nbsp;&lt;/div&gt;" style="text;html=1;strokeColor=none;fillColor=none;align=left;verticalAlign=middle;spacingLeft=4;spacingRight=4;overflow=hidden;rotatable=0;points=[[0,0.5],[1,0.5]];portConstraint=eastwest;" parent="JRqAic6rARAx1u7xyLW3-149" vertex="1">
          <mxGeometry y="58" width="230" height="62" as="geometry" />
        </mxCell>
      </root>
    </mxGraphModel>
  </diagram>
</mxfile>
